<svg xmlns="http://www.w3.org/2000/svg" version="1.0" width="300.000000pt" height="300.000000pt" viewBox="0 0 300.000000 300.000000" preserveAspectRatio="xMidYMid meet">
<g transform="translate(0.000000,300.000000) scale(0.050000,-0.050000)" fill="#0f0" stroke="none">
<path d="M3480 5978 c-803 -103 -1551 -472 -2255 -1111 -151 -137 -165 -156 -165 -225 0 -185 145 -192 335 -17 1723 1597 3908 1382 4127 -405 120 -985 -469 -2202 -1469 -3038 -1181 -986 -2680 -1170 -3436 -421 -222 219 -201 346 100 614 635 567 706 779 387 1153 -63 74 -161 190 -219 258 -312 366 -350 626 -163 1089 83 203 -189 249 -290 48 -240 -472 -123 -945 364 -1481 281 -310 269 -368 -156 -741 -546 -480 -608 -764 -245 -1130 1563 -1576 5017 345 5406 3007 219 1499 -837 2591 -2321 2400z"/>
<path d="M3280 5368 c-332 -143 -389 -601 -103 -821 306 -236 762 -13 762 373 1 343 -350 582 -659 448z m312 -316 c75 -75 83 -124 38 -212 -87 -169 -350 -105 -350 84 0 179 185 255 312 128z"/>
<path d="M4660 5061 c-561 -111 -478 -943 94 -941 268 1 469 203 469 472 0 300 -272 526 -563 469z m207 -322 c106 -84 80 -266 -46 -318 -129 -54 -251 28 -251 169 0 164 169 249 297 149z"/>
<path d="M1678 4203 c-650 -215 -698 -1107 -75 -1393 425 -194 910 48 1029 513 140 546 -415 1058 -954 880z m485 -338 c357 -246 187 -822 -243 -825 -408 -2 -621 473 -344 768 142 151 413 178 587 57z"/>
<path d="M4683 3737 c-345 -61 -506 -452 -307 -744 63 -93 121 -119 203 -90 96 33 115 158 39 254 -117 149 47 355 224 282 117 -48 145 -165 69 -289 -116 -187 45 -353 202 -208 325 299 14 873 -430 795z"/>
<path d="M3953 2591 c-299 -107 -411 -489 -220 -746 170 -228 554 -239 738 -21 314 373 -62 930 -518 767z m295 -333 c68 -81 67 -160 -4 -240 -162 -181 -429 54 -272 240 43 52 66 62 138 62 72 0 95 -10 138 -62z"/>
<path d="M2675 1645 c-296 -309 -30 -843 398 -799 383 40 568 515 308 793 -139 149 -348 -23 -222 -183 139 -176 -34 -400 -228 -296 -99 53 -115 166 -40 293 106 182 -73 341 -216 192z"/>
<path d="M1456 1582 c-267 -87 -396 -450 -246 -693 266 -430 928 -222 886 280 -25 300 -346 508 -640 413z m288 -319 c181 -163 -56 -428 -242 -271 -128 107 -47 328 119 328 36 0 83 -22 123 -57z"/>
</g>
</svg>