<svg xmlns="http://www.w3.org/2000/svg" version="1.0" width="154.000000pt" height="155.000000pt" viewBox="0 0 154.000000 155.000000" preserveAspectRatio="xMidYMid meet">
<metadata>
</metadata>
<g transform="translate(0.000000,155.000000) scale(0.100000,-0.100000)" fill="#0f0" stroke="none">
<path d="M1335 1448 c-19 -11 -166 -148 -624 -583 -383 -363 -381 -361 -424 -369 -27 -5 -53 -21 -82 -51 -73 -73 -101 -150 -107 -294 -2 -60 0 -75 14 -84 13 -9 22 -7 40 10 32 29 72 47 151 67 105 28 173 87 186 160 5 26 101 133 471 525 256 271 470 502 477 514 17 31 16 83 -3 101 -18 18 -70 20 -99 4z m65 -52 c0 -8 -46 -64 -102 -124 -57 -60 -231 -244 -386 -409 l-284 -301 -35 39 -35 39 103 97 c57 54 232 220 389 368 324 308 350 329 350 291z m-863 -933 l-57 -58 -41 42 -42 41 59 55 59 56 39 -39 40 -39 -57 -58z m-132 -65 c18 -21 25 -41 25 -70 0 -61 -45 -99 -152 -128 -46 -12 -94 -29 -107 -37 l-23 -15 7 53 c10 73 29 122 66 173 59 83 127 92 184 24z"/>
</g>
</svg>